<svg width="60" height="61" viewBox="0 0 60 61" fill="none" xmlns="http://www.w3.org/2000/svg">
<rect x="0.833333" y="1.66927" width="58.3333" height="58.3333" rx="7.16667" fill="white"/>
<path d="M13.9393 19.7753C13.3536 20.3611 13.3536 21.3108 13.9393 21.8966L23.4853 31.4425C24.0711 32.0283 25.0208 32.0283 25.6066 31.4425C26.1924 30.8568 26.1924 29.907 25.6066 29.3212L17.1213 20.8359L25.6066 12.3507C26.1924 11.7649 26.1924 10.8151 25.6066 10.2293C25.0208 9.64355 24.0711 9.64355 23.4853 10.2293L13.9393 19.7753ZM45 19.3359L15 19.3359L15 22.3359L45 22.3359L45 19.3359Z" fill="white"/>
<path d="M13.9393 19.7753C13.3536 20.3611 13.3536 21.3108 13.9393 21.8966L23.4853 31.4425C24.0711 32.0283 25.0208 32.0283 25.6066 31.4425C26.1924 30.8568 26.1924 29.907 25.6066 29.3212L17.1213 20.8359L25.6066 12.3507C26.1924 11.7649 26.1924 10.8151 25.6066 10.2293C25.0208 9.64355 24.0711 9.64355 23.4853 10.2293L13.9393 19.7753ZM45 19.3359L15 19.3359L15 22.3359L45 22.3359L45 19.3359Z" fill="#F4B5D3"/>
<path d="M46.0607 41.8966C46.6464 41.3108 46.6464 40.3611 46.0607 39.7753L36.5147 30.2293C35.9289 29.6435 34.9792 29.6435 34.3934 30.2293C33.8076 30.8151 33.8076 31.7649 34.3934 32.3507L42.8787 40.8359L34.3934 49.3212C33.8076 49.907 33.8076 50.8568 34.3934 51.4425C34.9792 52.0283 35.9289 52.0283 36.5147 51.4425L46.0607 41.8966ZM45 39.3359L15 39.3359L15 42.3359L45 42.3359L45 39.3359Z" fill="white"/>
<path d="M46.0607 41.8966C46.6464 41.3108 46.6464 40.3611 46.0607 39.7753L36.5147 30.2293C35.9289 29.6435 34.9792 29.6435 34.3934 30.2293C33.8076 30.8151 33.8076 31.7649 34.3934 32.3507L42.8787 40.8359L34.3934 49.3212C33.8076 49.907 33.8076 50.8568 34.3934 51.4425C34.9792 52.0283 35.9289 52.0283 36.5147 51.4425L46.0607 41.8966ZM45 39.3359L15 39.3359L15 42.3359L45 42.3359L45 39.3359Z" fill="#F4B5D3"/>
<rect x="0.833333" y="1.66927" width="58.3333" height="58.3333" rx="7.16667" stroke="white" stroke-width="1.66667"/>
</svg>
