<svg width="1015" height="413" viewBox="0 0 1015 413" fill="none" xmlns="http://www.w3.org/2000/svg">
<rect x="1" y="1.16797" width="1013" height="410" rx="17" fill="white" fill-opacity="0.6" stroke="url(#paint0_angular_1_128)" stroke-width="2"/>
<path d="M41.7512 107.168V106.273L45.112 102.594C45.5065 102.163 45.8313 101.789 46.0865 101.471C46.3417 101.149 46.5306 100.847 46.6532 100.566C46.7792 100.281 46.8422 99.9824 46.8422 99.6708C46.8422 99.3129 46.756 99.003 46.5836 98.7411C46.4146 98.4793 46.1826 98.2771 45.8876 98.1346C45.5926 97.9921 45.2612 97.9208 44.8933 97.9208C44.5022 97.9208 44.1608 98.002 43.8691 98.1644C43.5808 98.3235 43.3571 98.5472 43.198 98.8356C43.0422 99.1239 42.9643 99.462 42.9643 99.8498H41.791C41.791 99.2532 41.9286 98.7295 42.2037 98.2788C42.4788 97.828 42.8533 97.4767 43.3272 97.2248C43.8045 96.9729 44.3398 96.8469 44.9331 96.8469C45.5297 96.8469 46.0583 96.9729 46.519 97.2248C46.9797 97.4767 47.341 97.8164 47.6028 98.244C47.8646 98.6715 47.9956 99.1471 47.9956 99.6708C47.9956 100.045 47.9276 100.412 47.7917 100.77C47.6592 101.124 47.4271 101.52 47.0957 101.958C46.7676 102.392 46.3118 102.922 45.7285 103.549L43.4416 105.995V106.074H48.1745V107.168H41.7512ZM54.3443 107.168V96.9862H60.4892V98.0799H55.5772V101.52H60.171V102.614H55.5772V106.074H60.5687V107.168H54.3443ZM65.8734 99.5316V100.526H61.916V99.5316H65.8734ZM63.0694 97.7021H64.2427V104.98C64.2427 105.312 64.2908 105.56 64.3869 105.726C64.4863 105.889 64.6123 105.998 64.7647 106.054C64.9205 106.107 65.0846 106.134 65.2569 106.134C65.3862 106.134 65.4922 106.127 65.5751 106.114C65.658 106.097 65.7243 106.084 65.774 106.074L66.0126 107.128C65.9331 107.158 65.822 107.188 65.6795 107.218C65.537 107.251 65.3564 107.267 65.1376 107.267C64.8062 107.267 64.4814 107.196 64.1632 107.054C63.8483 106.911 63.5865 106.694 63.3777 106.402C63.1722 106.111 63.0694 105.743 63.0694 105.299V97.7021ZM68.9757 102.574V107.168H67.8024V96.9862H68.9757V100.725H69.0751C69.2541 100.33 69.5225 100.017 69.8805 99.7852C70.2418 99.5498 70.7224 99.4322 71.3223 99.4322C71.8426 99.4322 72.2984 99.5366 72.6895 99.7454C73.0806 99.9509 73.3838 100.267 73.5993 100.695C73.818 101.119 73.9274 101.659 73.9274 102.316V107.168H72.7541V102.395C72.7541 101.789 72.5967 101.32 72.2818 100.988C71.9702 100.654 71.5377 100.486 70.9842 100.486C70.5997 100.486 70.255 100.567 69.9501 100.73C69.6485 100.892 69.4099 101.129 69.2342 101.441C69.0618 101.752 68.9757 102.13 68.9757 102.574Z" fill="#222B5A"/>
<line opacity="0.2" x1="976" y1="102.168" x2="87" y2="102.168" stroke="#222B5A"/>
<path d="M45.2995 195.986V206.168H44.0666V197.279H44.0069L41.5211 198.929V197.676L44.0666 195.986H45.2995ZM52.3443 206.168V195.986H58.4892V197.08H53.5772V200.52H58.171V201.614H53.5772V205.074H58.5687V206.168H52.3443ZM63.8734 198.532V199.526H59.916V198.532H63.8734ZM61.0694 196.702H62.2427V203.98C62.2427 204.312 62.2908 204.56 62.3869 204.726C62.4863 204.889 62.6123 204.998 62.7647 205.054C62.9205 205.107 63.0846 205.134 63.2569 205.134C63.3862 205.134 63.4922 205.127 63.5751 205.114C63.658 205.097 63.7243 205.084 63.774 205.074L64.0126 206.128C63.9331 206.158 63.822 206.188 63.6795 206.218C63.537 206.251 63.3564 206.267 63.1376 206.267C62.8062 206.267 62.4814 206.196 62.1632 206.054C61.8483 205.911 61.5865 205.694 61.3777 205.402C61.1722 205.111 61.0694 204.743 61.0694 204.299V196.702ZM66.9757 201.574V206.168H65.8024V195.986H66.9757V199.725H67.0751C67.2541 199.33 67.5225 199.017 67.8805 198.785C68.2418 198.55 68.7224 198.432 69.3223 198.432C69.8426 198.432 70.2984 198.537 70.6895 198.745C71.0806 198.951 71.3838 199.267 71.5993 199.695C71.818 200.119 71.9274 200.659 71.9274 201.316V206.168H70.7541V201.395C70.7541 200.789 70.5967 200.32 70.2818 199.988C69.9702 199.654 69.5377 199.486 68.9842 199.486C68.5997 199.486 68.255 199.567 67.9501 199.73C67.6485 199.892 67.4099 200.129 67.2342 200.441C67.0618 200.752 66.9757 201.13 66.9757 201.574Z" fill="#222B5A"/>
<line opacity="0.2" x1="974" y1="201.168" x2="85" y2="201.168" stroke="#222B5A"/>
<path d="M44.7988 305.307C44.0498 305.307 43.4118 305.103 42.8848 304.696C42.3578 304.285 41.9551 303.69 41.6767 302.911C41.3983 302.129 41.2591 301.184 41.2591 300.077C41.2591 298.977 41.3983 298.037 41.6767 297.258C41.9584 296.476 42.3627 295.879 42.8897 295.468C43.42 295.054 44.0564 294.847 44.7988 294.847C45.5413 294.847 46.176 295.054 46.7029 295.468C47.2333 295.879 47.6376 296.476 47.916 297.258C48.1977 298.037 48.3386 298.977 48.3386 300.077C48.3386 301.184 48.1994 302.129 47.921 302.911C47.6426 303.69 47.2399 304.285 46.7129 304.696C46.1859 305.103 45.5479 305.307 44.7988 305.307ZM44.7988 304.213C45.5413 304.213 46.118 303.855 46.5289 303.14C46.9399 302.424 47.1454 301.403 47.1454 300.077C47.1454 299.195 47.051 298.445 46.862 297.825C46.6764 297.205 46.408 296.733 46.0566 296.408C45.7086 296.083 45.2894 295.921 44.7988 295.921C44.063 295.921 43.488 296.284 43.0737 297.01C42.6594 297.732 42.4522 298.755 42.4522 300.077C42.4522 300.959 42.545 301.708 42.7306 302.324C42.9163 302.941 43.1831 303.41 43.5311 303.731C43.8824 304.053 44.305 304.213 44.7988 304.213ZM54.3443 305.168V294.986H60.4892V296.08H55.5772V299.52H60.171V300.614H55.5772V304.074H60.5687V305.168H54.3443ZM65.8734 297.532V298.526H61.916V297.532H65.8734ZM63.0694 295.702H64.2427V302.98C64.2427 303.312 64.2908 303.56 64.3869 303.726C64.4863 303.889 64.6123 303.998 64.7647 304.054C64.9205 304.107 65.0846 304.134 65.2569 304.134C65.3862 304.134 65.4922 304.127 65.5751 304.114C65.658 304.097 65.7243 304.084 65.774 304.074L66.0126 305.128C65.9331 305.158 65.822 305.188 65.6795 305.218C65.537 305.251 65.3564 305.267 65.1376 305.267C64.8062 305.267 64.4814 305.196 64.1632 305.054C63.8483 304.911 63.5865 304.694 63.3777 304.402C63.1722 304.111 63.0694 303.743 63.0694 303.299V295.702ZM68.9757 300.574V305.168H67.8024V294.986H68.9757V298.725H69.0751C69.2541 298.33 69.5225 298.017 69.8805 297.785C70.2418 297.55 70.7224 297.432 71.3223 297.432C71.8426 297.432 72.2984 297.537 72.6895 297.745C73.0806 297.951 73.3838 298.267 73.5993 298.695C73.818 299.119 73.9274 299.659 73.9274 300.316V305.168H72.7541V300.395C72.7541 299.789 72.5967 299.32 72.2818 298.988C71.9702 298.654 71.5377 298.486 70.9842 298.486C70.5997 298.486 70.255 298.567 69.9501 298.73C69.6485 298.892 69.4099 299.129 69.2342 299.441C69.0618 299.752 68.9757 300.13 68.9757 300.574Z" fill="#222B5A"/>
<line opacity="0.2" x1="976" y1="300.168" x2="87" y2="300.168" stroke="#222B5A"/>
<path d="M518.59 375.168H515.448V364.986H518.729C519.717 364.986 520.562 365.19 521.265 365.598C521.967 366.002 522.506 366.584 522.88 367.343C523.255 368.098 523.442 369.003 523.442 370.057C523.442 371.118 523.253 372.031 522.875 372.797C522.498 373.559 521.947 374.145 521.225 374.556C520.502 374.964 519.624 375.168 518.59 375.168ZM516.681 374.074H518.51C519.352 374.074 520.05 373.912 520.603 373.587C521.157 373.262 521.569 372.8 521.841 372.2C522.113 371.6 522.249 370.886 522.249 370.057C522.249 369.235 522.115 368.528 521.846 367.934C521.578 367.338 521.177 366.88 520.643 366.562C520.109 366.241 519.445 366.08 518.65 366.08H516.681V374.074ZM527.598 375.347C527.114 375.347 526.675 375.256 526.281 375.074C525.886 374.888 525.573 374.621 525.341 374.273C525.109 373.922 524.993 373.498 524.993 373C524.993 372.563 525.079 372.208 525.252 371.936C525.424 371.661 525.654 371.446 525.943 371.29C526.231 371.134 526.549 371.018 526.897 370.942C527.249 370.863 527.602 370.8 527.956 370.753C528.42 370.694 528.797 370.649 529.085 370.619C529.377 370.586 529.589 370.531 529.721 370.455C529.857 370.379 529.925 370.246 529.925 370.057V370.017C529.925 369.527 529.791 369.146 529.522 368.874C529.257 368.602 528.855 368.466 528.314 368.466C527.754 368.466 527.315 368.589 526.997 368.834C526.679 369.079 526.455 369.341 526.326 369.62L525.212 369.222C525.411 368.758 525.676 368.397 526.007 368.138C526.342 367.876 526.707 367.694 527.101 367.591C527.499 367.485 527.89 367.432 528.275 367.432C528.52 367.432 528.801 367.462 529.12 367.522C529.441 367.578 529.751 367.696 530.049 367.875C530.351 368.054 530.601 368.324 530.8 368.685C530.999 369.046 531.098 369.53 531.098 370.137V375.168H529.925V374.134H529.865C529.786 374.3 529.653 374.477 529.468 374.666C529.282 374.855 529.035 375.016 528.727 375.148C528.419 375.281 528.042 375.347 527.598 375.347ZM527.777 374.293C528.241 374.293 528.632 374.202 528.951 374.02C529.272 373.837 529.514 373.602 529.676 373.314C529.842 373.025 529.925 372.722 529.925 372.404V371.33C529.875 371.39 529.766 371.444 529.597 371.494C529.431 371.54 529.239 371.582 529.02 371.618C528.805 371.651 528.594 371.681 528.389 371.708C528.187 371.731 528.023 371.751 527.897 371.767C527.592 371.807 527.307 371.872 527.042 371.961C526.78 372.047 526.568 372.178 526.405 372.354C526.246 372.526 526.167 372.762 526.167 373.06C526.167 373.468 526.317 373.776 526.619 373.985C526.924 374.19 527.31 374.293 527.777 374.293ZM533.722 378.032C533.523 378.032 533.346 378.015 533.19 377.982C533.034 377.952 532.927 377.922 532.867 377.892L533.165 376.858C533.45 376.931 533.702 376.958 533.921 376.938C534.14 376.918 534.334 376.82 534.503 376.645C534.675 376.472 534.832 376.192 534.975 375.804L535.194 375.208L532.37 367.532H533.643L535.751 373.617H535.83L537.938 367.532H539.211L535.969 376.282C535.823 376.676 535.643 377.002 535.427 377.261C535.212 377.523 534.962 377.717 534.677 377.843C534.395 377.969 534.077 378.032 533.722 378.032ZM546.169 369.242L545.115 369.54C545.048 369.364 544.95 369.194 544.821 369.028C544.695 368.859 544.523 368.72 544.304 368.61C544.085 368.501 543.805 368.446 543.464 368.446C542.997 368.446 542.607 368.554 542.296 368.77C541.987 368.982 541.833 369.252 541.833 369.58C541.833 369.872 541.939 370.102 542.151 370.271C542.364 370.44 542.695 370.581 543.146 370.694L544.279 370.972C544.962 371.138 545.471 371.391 545.806 371.733C546.14 372.071 546.308 372.507 546.308 373.04C546.308 373.478 546.182 373.869 545.93 374.213C545.681 374.558 545.333 374.83 544.886 375.029C544.438 375.228 543.918 375.327 543.325 375.327C542.546 375.327 541.901 375.158 541.391 374.82C540.88 374.482 540.557 373.988 540.421 373.338L541.535 373.06C541.641 373.471 541.842 373.779 542.137 373.985C542.435 374.19 542.824 374.293 543.305 374.293C543.852 374.293 544.286 374.177 544.607 373.945C544.932 373.71 545.095 373.428 545.095 373.1C545.095 372.835 545.002 372.613 544.816 372.434C544.631 372.251 544.346 372.115 543.961 372.026L542.688 371.728C541.989 371.562 541.475 371.305 541.147 370.957C540.822 370.606 540.66 370.167 540.66 369.64C540.66 369.209 540.781 368.828 541.023 368.496C541.268 368.165 541.601 367.904 542.022 367.716C542.446 367.527 542.927 367.432 543.464 367.432C544.22 367.432 544.813 367.598 545.244 367.929C545.678 368.261 545.986 368.698 546.169 369.242Z" fill="#222B5A"/>
<path d="M99.1257 335.986V346.168H97.8928V337.279H97.8331L95.3473 338.929V337.676L97.8928 335.986H99.1257Z" fill="#222B5A"/>
<path d="M126.577 346.168V345.273L129.938 341.594C130.333 341.163 130.657 340.789 130.913 340.471C131.168 340.149 131.357 339.847 131.479 339.566C131.605 339.281 131.668 338.982 131.668 338.671C131.668 338.313 131.582 338.003 131.41 337.741C131.241 337.479 131.009 337.277 130.714 337.135C130.419 336.992 130.087 336.921 129.719 336.921C129.328 336.921 128.987 337.002 128.695 337.164C128.407 337.324 128.183 337.547 128.024 337.836C127.868 338.124 127.79 338.462 127.79 338.85H126.617C126.617 338.253 126.755 337.73 127.03 337.279C127.305 336.828 127.679 336.477 128.153 336.225C128.631 335.973 129.166 335.847 129.759 335.847C130.356 335.847 130.884 335.973 131.345 336.225C131.806 336.477 132.167 336.816 132.429 337.244C132.691 337.672 132.822 338.147 132.822 338.671C132.822 339.045 132.754 339.412 132.618 339.77C132.485 340.124 132.253 340.52 131.922 340.958C131.594 341.392 131.138 341.922 130.555 342.549L128.268 344.995V345.074H133.001V346.168H126.577Z" fill="#222B5A"/>
<path d="M162.58 346.307C161.924 346.307 161.339 346.194 160.825 345.969C160.315 345.744 159.909 345.431 159.607 345.029C159.309 344.625 159.147 344.156 159.12 343.623H160.373C160.399 343.951 160.512 344.234 160.711 344.473C160.91 344.708 161.17 344.89 161.491 345.02C161.813 345.149 162.169 345.213 162.56 345.213C162.998 345.213 163.386 345.137 163.724 344.985C164.062 344.832 164.327 344.62 164.519 344.348C164.711 344.077 164.808 343.762 164.808 343.404C164.808 343.029 164.715 342.699 164.529 342.414C164.344 342.126 164.072 341.901 163.714 341.738C163.356 341.576 162.918 341.495 162.401 341.495H161.586V340.401H162.401C162.806 340.401 163.16 340.328 163.465 340.182C163.773 340.036 164.014 339.831 164.186 339.566C164.362 339.301 164.45 338.989 164.45 338.631C164.45 338.286 164.373 337.986 164.221 337.731C164.068 337.476 163.853 337.277 163.575 337.135C163.299 336.992 162.975 336.921 162.6 336.921C162.249 336.921 161.917 336.985 161.606 337.115C161.298 337.241 161.046 337.425 160.85 337.667C160.655 337.905 160.549 338.194 160.532 338.532H159.339C159.359 337.998 159.519 337.531 159.821 337.13C160.123 336.725 160.517 336.41 161.004 336.185C161.495 335.96 162.033 335.847 162.62 335.847C163.25 335.847 163.79 335.975 164.241 336.23C164.692 336.482 165.038 336.815 165.28 337.229C165.522 337.643 165.643 338.091 165.643 338.571C165.643 339.145 165.492 339.634 165.19 340.038C164.892 340.442 164.486 340.722 163.972 340.878V340.958C164.615 341.064 165.117 341.337 165.479 341.778C165.84 342.216 166.021 342.757 166.021 343.404C166.021 343.957 165.87 344.454 165.568 344.895C165.27 345.333 164.862 345.677 164.345 345.929C163.828 346.181 163.24 346.307 162.58 346.307Z" fill="#222B5A"/>
<path d="M191.833 344.08V343.066L196.307 335.986H197.043V337.557H196.546L193.165 342.907V342.986H199.191V344.08H191.833ZM196.626 346.168V343.772V343.299V335.986H197.799V346.168H196.626Z" fill="#222B5A"/>
<path d="M228.718 346.307C228.135 346.307 227.61 346.191 227.142 345.959C226.675 345.727 226.3 345.409 226.019 345.005C225.737 344.6 225.583 344.14 225.556 343.623H226.749C226.796 344.083 227.005 344.464 227.376 344.766C227.75 345.064 228.198 345.213 228.718 345.213C229.136 345.213 229.507 345.116 229.832 344.92C230.16 344.725 230.417 344.456 230.602 344.115C230.791 343.77 230.886 343.381 230.886 342.946C230.886 342.502 230.788 342.106 230.593 341.758C230.4 341.407 230.135 341.13 229.797 340.928C229.459 340.726 229.073 340.623 228.639 340.62C228.327 340.616 228.007 340.664 227.679 340.764C227.351 340.86 227.081 340.984 226.869 341.137L225.715 340.998L226.332 335.986H231.622V337.08H227.366L227.008 340.083H227.068C227.276 339.917 227.538 339.779 227.853 339.67C228.168 339.561 228.496 339.506 228.838 339.506C229.461 339.506 230.016 339.655 230.503 339.953C230.994 340.248 231.378 340.653 231.656 341.167C231.938 341.68 232.079 342.267 232.079 342.926C232.079 343.576 231.933 344.156 231.642 344.667C231.353 345.174 230.955 345.575 230.448 345.87C229.941 346.161 229.365 346.307 228.718 346.307Z" fill="#222B5A"/>
<path d="M261.698 346.307C261.281 346.301 260.863 346.221 260.445 346.069C260.028 345.916 259.647 345.659 259.302 345.298C258.957 344.933 258.681 344.441 258.472 343.821C258.263 343.198 258.159 342.416 258.159 341.475C258.159 340.573 258.243 339.775 258.412 339.078C258.581 338.379 258.826 337.791 259.148 337.314C259.469 336.833 259.857 336.468 260.311 336.22C260.769 335.971 261.284 335.847 261.857 335.847C262.427 335.847 262.935 335.961 263.379 336.19C263.826 336.415 264.191 336.73 264.472 337.135C264.754 337.539 264.936 338.005 265.019 338.532H263.806C263.694 338.074 263.475 337.695 263.15 337.393C262.825 337.092 262.394 336.941 261.857 336.941C261.069 336.941 260.447 337.284 259.993 337.97C259.542 338.656 259.315 339.619 259.312 340.858H259.392C259.577 340.577 259.798 340.336 260.053 340.137C260.311 339.935 260.596 339.779 260.908 339.67C261.219 339.561 261.549 339.506 261.897 339.506C262.481 339.506 263.014 339.652 263.498 339.944C263.982 340.232 264.37 340.631 264.661 341.142C264.953 341.649 265.099 342.23 265.099 342.887C265.099 343.516 264.958 344.093 264.676 344.617C264.395 345.137 263.999 345.551 263.488 345.86C262.981 346.165 262.384 346.314 261.698 346.307ZM261.698 345.213C262.116 345.213 262.49 345.109 262.822 344.9C263.157 344.691 263.42 344.411 263.612 344.06C263.808 343.709 263.906 343.318 263.906 342.887C263.906 342.466 263.811 342.083 263.622 341.738C263.437 341.39 263.18 341.114 262.852 340.908C262.527 340.703 262.156 340.6 261.738 340.6C261.423 340.6 261.13 340.663 260.858 340.789C260.586 340.911 260.348 341.08 260.142 341.296C259.94 341.511 259.781 341.758 259.665 342.037C259.549 342.312 259.491 342.602 259.491 342.907C259.491 343.311 259.585 343.689 259.774 344.04C259.967 344.391 260.228 344.675 260.56 344.89C260.895 345.106 261.274 345.213 261.698 345.213Z" fill="#222B5A"/>
<path d="M291.374 346.168L295.928 337.159V337.08H290.678V335.986H297.201V337.14L292.667 346.168H291.374Z" fill="#222B5A"/>
<path d="M326.688 346.307C326.006 346.307 325.402 346.186 324.879 345.944C324.358 345.699 323.952 345.363 323.661 344.935C323.369 344.504 323.225 344.014 323.228 343.463C323.225 343.033 323.309 342.635 323.482 342.27C323.654 341.902 323.889 341.596 324.188 341.35C324.489 341.102 324.826 340.944 325.197 340.878V340.819C324.71 340.693 324.322 340.419 324.034 339.998C323.745 339.574 323.603 339.092 323.606 338.551C323.603 338.034 323.734 337.572 323.999 337.164C324.264 336.757 324.628 336.435 325.093 336.2C325.56 335.965 326.092 335.847 326.688 335.847C327.278 335.847 327.805 335.965 328.269 336.2C328.733 336.435 329.098 336.757 329.363 337.164C329.632 337.572 329.767 338.034 329.771 338.551C329.767 339.092 329.62 339.574 329.328 339.998C329.04 340.419 328.657 340.693 328.18 340.819V340.878C328.548 340.944 328.879 341.102 329.174 341.35C329.469 341.596 329.704 341.902 329.88 342.27C330.056 342.635 330.145 343.033 330.149 343.463C330.145 344.014 329.996 344.504 329.701 344.935C329.41 345.363 329.003 345.699 328.483 345.944C327.966 346.186 327.368 346.307 326.688 346.307ZM326.688 345.213C327.149 345.213 327.547 345.139 327.882 344.99C328.216 344.841 328.475 344.63 328.657 344.358C328.839 344.087 328.932 343.768 328.936 343.404C328.932 343.019 328.833 342.68 328.637 342.385C328.442 342.09 328.175 341.858 327.837 341.689C327.502 341.52 327.119 341.435 326.688 341.435C326.254 341.435 325.866 341.52 325.525 341.689C325.187 341.858 324.92 342.09 324.725 342.385C324.532 342.68 324.438 343.019 324.441 343.404C324.438 343.768 324.526 344.087 324.705 344.358C324.887 344.63 325.147 344.841 325.485 344.99C325.823 345.139 326.224 345.213 326.688 345.213ZM326.688 340.381C327.053 340.381 327.376 340.308 327.658 340.162C327.943 340.016 328.167 339.813 328.329 339.551C328.491 339.289 328.574 338.982 328.578 338.631C328.574 338.286 328.493 337.986 328.334 337.731C328.175 337.473 327.954 337.274 327.673 337.135C327.391 336.992 327.063 336.921 326.688 336.921C326.307 336.921 325.974 336.992 325.689 337.135C325.404 337.274 325.184 337.473 325.028 337.731C324.872 337.986 324.796 338.286 324.799 338.631C324.796 338.982 324.874 339.289 325.033 339.551C325.195 339.813 325.419 340.016 325.704 340.162C325.989 340.308 326.317 340.381 326.688 340.381Z" fill="#222B5A"/>
<path d="M359.559 335.847C359.977 335.85 360.394 335.93 360.812 336.086C361.23 336.241 361.611 336.5 361.955 336.861C362.3 337.219 362.577 337.708 362.786 338.328C362.994 338.948 363.099 339.725 363.099 340.659C363.099 341.564 363.013 342.368 362.84 343.071C362.671 343.77 362.426 344.36 362.105 344.841C361.786 345.321 361.399 345.686 360.941 345.934C360.487 346.183 359.973 346.307 359.4 346.307C358.83 346.307 358.321 346.194 357.874 345.969C357.43 345.74 357.065 345.424 356.78 345.02C356.498 344.612 356.318 344.14 356.238 343.603H357.451C357.561 344.07 357.778 344.456 358.102 344.761C358.431 345.063 358.863 345.213 359.4 345.213C360.186 345.213 360.805 344.87 361.259 344.184C361.717 343.498 361.945 342.529 361.945 341.276H361.866C361.68 341.554 361.46 341.795 361.205 341.997C360.95 342.199 360.666 342.355 360.355 342.464C360.043 342.574 359.712 342.628 359.36 342.628C358.777 342.628 358.242 342.484 357.754 342.196C357.271 341.904 356.883 341.505 356.591 340.998C356.303 340.487 356.159 339.904 356.159 339.248C356.159 338.624 356.298 338.054 356.576 337.537C356.858 337.017 357.252 336.603 357.759 336.294C358.27 335.986 358.87 335.837 359.559 335.847ZM359.559 336.941C359.142 336.941 358.765 337.045 358.431 337.254C358.099 337.459 357.836 337.738 357.64 338.089C357.448 338.437 357.352 338.823 357.352 339.248C357.352 339.672 357.445 340.058 357.63 340.406C357.819 340.751 358.076 341.026 358.401 341.231C358.729 341.433 359.102 341.534 359.519 341.534C359.834 341.534 360.128 341.473 360.399 341.35C360.671 341.225 360.908 341.054 361.11 340.838C361.316 340.62 361.477 340.373 361.593 340.098C361.709 339.819 361.767 339.529 361.767 339.228C361.767 338.83 361.67 338.457 361.478 338.109C361.289 337.761 361.027 337.479 360.693 337.264C360.361 337.048 359.983 336.941 359.559 336.941Z" fill="#222B5A"/>
<path d="M393.376 335.986V346.168H392.143V337.279H392.083L389.597 338.929V337.676L392.143 335.986H393.376ZM399.625 346.307C398.876 346.307 398.238 346.103 397.711 345.696C397.184 345.285 396.781 344.69 396.503 343.911C396.224 343.129 396.085 342.184 396.085 341.077C396.085 339.977 396.224 339.037 396.503 338.258C396.785 337.476 397.189 336.879 397.716 336.468C398.246 336.054 398.883 335.847 399.625 335.847C400.367 335.847 401.002 336.054 401.529 336.468C402.059 336.879 402.464 337.476 402.742 338.258C403.024 339.037 403.165 339.977 403.165 341.077C403.165 342.184 403.026 343.129 402.747 343.911C402.469 344.69 402.066 345.285 401.539 345.696C401.012 346.103 400.374 346.307 399.625 346.307ZM399.625 345.213C400.367 345.213 400.944 344.855 401.355 344.14C401.766 343.424 401.972 342.403 401.972 341.077C401.972 340.195 401.877 339.445 401.688 338.825C401.503 338.205 401.234 337.733 400.883 337.408C400.535 337.083 400.116 336.921 399.625 336.921C398.889 336.921 398.314 337.284 397.9 338.01C397.486 338.732 397.278 339.755 397.278 341.077C397.278 341.959 397.371 342.708 397.557 343.324C397.742 343.941 398.009 344.41 398.357 344.731C398.709 345.053 399.131 345.213 399.625 345.213Z" fill="#222B5A"/>
<path d="M433.618 335.986V346.168H432.385V337.279H432.325L429.839 338.929V337.676L432.385 335.986H433.618ZM440.126 335.986V346.168H438.893V337.279H438.833L436.347 338.929V337.676L438.893 335.986H440.126Z" fill="#222B5A"/>
<path d="M470.649 335.986V346.168H469.416V337.279H469.357L466.871 338.929V337.676L469.416 335.986H470.649ZM473.577 346.168V345.273L476.938 341.594C477.333 341.163 477.657 340.789 477.913 340.471C478.168 340.149 478.357 339.847 478.479 339.566C478.605 339.281 478.668 338.982 478.668 338.671C478.668 338.313 478.582 338.003 478.41 337.741C478.241 337.479 478.009 337.277 477.714 337.135C477.419 336.992 477.087 336.921 476.719 336.921C476.328 336.921 475.987 337.002 475.695 337.164C475.407 337.324 475.183 337.547 475.024 337.836C474.868 338.124 474.79 338.462 474.79 338.85H473.617C473.617 338.253 473.755 337.73 474.03 337.279C474.305 336.828 474.679 336.477 475.153 336.225C475.631 335.973 476.166 335.847 476.759 335.847C477.356 335.847 477.884 335.973 478.345 336.225C478.806 336.477 479.167 336.816 479.429 337.244C479.691 337.672 479.822 338.147 479.822 338.671C479.822 339.045 479.754 339.412 479.618 339.77C479.485 340.124 479.253 340.52 478.922 340.958C478.594 341.392 478.138 341.922 477.555 342.549L475.268 344.995V345.074H480.001V346.168H473.577Z" fill="#222B5A"/>
<path d="M510.212 335.986V346.168H508.979V337.279H508.919L506.433 338.929V337.676L508.979 335.986H510.212ZM516.58 346.307C515.924 346.307 515.339 346.194 514.825 345.969C514.315 345.744 513.909 345.431 513.607 345.029C513.309 344.625 513.147 344.156 513.12 343.623H514.373C514.399 343.951 514.512 344.234 514.711 344.473C514.91 344.708 515.17 344.89 515.491 345.02C515.813 345.149 516.169 345.213 516.56 345.213C516.998 345.213 517.386 345.137 517.724 344.985C518.062 344.832 518.327 344.62 518.519 344.348C518.711 344.077 518.808 343.762 518.808 343.404C518.808 343.029 518.715 342.699 518.529 342.414C518.344 342.126 518.072 341.901 517.714 341.738C517.356 341.576 516.918 341.495 516.401 341.495H515.586V340.401H516.401C516.806 340.401 517.16 340.328 517.465 340.182C517.773 340.036 518.014 339.831 518.186 339.566C518.362 339.301 518.45 338.989 518.45 338.631C518.45 338.286 518.373 337.986 518.221 337.731C518.068 337.476 517.853 337.277 517.575 337.135C517.299 336.992 516.975 336.921 516.6 336.921C516.249 336.921 515.917 336.985 515.606 337.115C515.298 337.241 515.046 337.425 514.85 337.667C514.655 337.905 514.549 338.194 514.532 338.532H513.339C513.359 337.998 513.519 337.531 513.821 337.13C514.123 336.725 514.517 336.41 515.004 336.185C515.495 335.96 516.033 335.847 516.62 335.847C517.25 335.847 517.79 335.975 518.241 336.23C518.692 336.482 519.038 336.815 519.28 337.229C519.522 337.643 519.643 338.091 519.643 338.571C519.643 339.145 519.492 339.634 519.19 340.038C518.892 340.442 518.486 340.722 517.972 340.878V340.958C518.615 341.064 519.117 341.337 519.479 341.778C519.84 342.216 520.021 342.757 520.021 343.404C520.021 343.957 519.87 344.454 519.568 344.895C519.27 345.333 518.862 345.677 518.345 345.929C517.828 346.181 517.24 346.307 516.58 346.307Z" fill="#222B5A"/>
<path d="M550.143 335.986V346.168H548.91V337.279H548.851L546.365 338.929V337.676L548.91 335.986H550.143ZM552.833 344.08V343.066L557.307 335.986H558.043V337.557H557.546L554.165 342.907V342.986H560.191V344.08H552.833ZM557.626 346.168V343.772V343.299V335.986H558.799V346.168H557.626Z" fill="#222B5A"/>
<path d="M590.608 335.986V346.168H589.375V337.279H589.316L586.83 338.929V337.676L589.375 335.986H590.608ZM596.718 346.307C596.135 346.307 595.61 346.191 595.142 345.959C594.675 345.727 594.3 345.409 594.019 345.005C593.737 344.6 593.583 344.14 593.556 343.623H594.749C594.796 344.083 595.005 344.464 595.376 344.766C595.75 345.064 596.198 345.213 596.718 345.213C597.136 345.213 597.507 345.116 597.832 344.92C598.16 344.725 598.417 344.456 598.602 344.115C598.791 343.77 598.886 343.381 598.886 342.946C598.886 342.502 598.788 342.106 598.593 341.758C598.4 341.407 598.135 341.13 597.797 340.928C597.459 340.726 597.073 340.623 596.639 340.62C596.327 340.616 596.007 340.664 595.679 340.764C595.351 340.86 595.081 340.984 594.869 341.137L593.715 340.998L594.332 335.986H599.622V337.08H595.366L595.008 340.083H595.068C595.276 339.917 595.538 339.779 595.853 339.67C596.168 339.561 596.496 339.506 596.838 339.506C597.461 339.506 598.016 339.655 598.503 339.953C598.994 340.248 599.378 340.653 599.656 341.167C599.938 341.68 600.079 342.267 600.079 342.926C600.079 343.576 599.933 344.156 599.642 344.667C599.353 345.174 598.955 345.575 598.448 345.87C597.941 346.161 597.365 346.307 596.718 346.307Z" fill="#222B5A"/>
<path d="M630.389 335.986V346.168H629.156V337.279H629.097L626.611 338.929V337.676L629.156 335.986H630.389ZM636.698 346.307C636.281 346.301 635.863 346.221 635.445 346.069C635.028 345.916 634.647 345.659 634.302 345.298C633.957 344.933 633.681 344.441 633.472 343.821C633.263 343.198 633.159 342.416 633.159 341.475C633.159 340.573 633.243 339.775 633.412 339.078C633.581 338.379 633.826 337.791 634.148 337.314C634.469 336.833 634.857 336.468 635.311 336.22C635.769 335.971 636.284 335.847 636.857 335.847C637.427 335.847 637.935 335.961 638.379 336.19C638.826 336.415 639.191 336.73 639.472 337.135C639.754 337.539 639.936 338.005 640.019 338.532H638.806C638.694 338.074 638.475 337.695 638.15 337.393C637.825 337.092 637.394 336.941 636.857 336.941C636.069 336.941 635.447 337.284 634.993 337.97C634.542 338.656 634.315 339.619 634.312 340.858H634.392C634.577 340.577 634.798 340.336 635.053 340.137C635.311 339.935 635.596 339.779 635.908 339.67C636.219 339.561 636.549 339.506 636.897 339.506C637.481 339.506 638.014 339.652 638.498 339.944C638.982 340.232 639.37 340.631 639.661 341.142C639.953 341.649 640.099 342.23 640.099 342.887C640.099 343.516 639.958 344.093 639.676 344.617C639.395 345.137 638.999 345.551 638.488 345.86C637.981 346.165 637.384 346.314 636.698 346.307ZM636.698 345.213C637.116 345.213 637.49 345.109 637.822 344.9C638.157 344.691 638.42 344.411 638.612 344.06C638.808 343.709 638.906 343.318 638.906 342.887C638.906 342.466 638.811 342.083 638.622 341.738C638.437 341.39 638.18 341.114 637.852 340.908C637.527 340.703 637.156 340.6 636.738 340.6C636.423 340.6 636.13 340.663 635.858 340.789C635.586 340.911 635.348 341.08 635.142 341.296C634.94 341.511 634.781 341.758 634.665 342.037C634.549 342.312 634.491 342.602 634.491 342.907C634.491 343.311 634.585 343.689 634.774 344.04C634.967 344.391 635.228 344.675 635.56 344.89C635.895 345.106 636.274 345.213 636.698 345.213Z" fill="#222B5A"/>
<path d="M670.128 335.986V346.168H668.895V337.279H668.835L666.349 338.929V337.676L668.895 335.986H670.128ZM673.374 346.168L677.928 337.159V337.08H672.678V335.986H679.201V337.14L674.667 346.168H673.374Z" fill="#222B5A"/>
<path d="M709.499 335.986V346.168H708.266V337.279H708.206L705.72 338.929V337.676L708.266 335.986H709.499ZM715.688 346.307C715.006 346.307 714.402 346.186 713.879 345.944C713.358 345.699 712.952 345.363 712.661 344.935C712.369 344.504 712.225 344.014 712.228 343.463C712.225 343.033 712.309 342.635 712.482 342.27C712.654 341.902 712.889 341.596 713.188 341.35C713.489 341.102 713.826 340.944 714.197 340.878V340.819C713.71 340.693 713.322 340.419 713.034 339.998C712.745 339.574 712.603 339.092 712.606 338.551C712.603 338.034 712.734 337.572 712.999 337.164C713.264 336.757 713.628 336.435 714.093 336.2C714.56 335.965 715.092 335.847 715.688 335.847C716.278 335.847 716.805 335.965 717.269 336.2C717.733 336.435 718.098 336.757 718.363 337.164C718.632 337.572 718.767 338.034 718.771 338.551C718.767 339.092 718.62 339.574 718.328 339.998C718.04 340.419 717.657 340.693 717.18 340.819V340.878C717.548 340.944 717.879 341.102 718.174 341.35C718.469 341.596 718.704 341.902 718.88 342.27C719.056 342.635 719.145 343.033 719.149 343.463C719.145 344.014 718.996 344.504 718.701 344.935C718.41 345.363 718.003 345.699 717.483 345.944C716.966 346.186 716.368 346.307 715.688 346.307ZM715.688 345.213C716.149 345.213 716.547 345.139 716.882 344.99C717.216 344.841 717.475 344.63 717.657 344.358C717.839 344.087 717.932 343.768 717.936 343.404C717.932 343.019 717.833 342.68 717.637 342.385C717.442 342.09 717.175 341.858 716.837 341.689C716.502 341.52 716.119 341.435 715.688 341.435C715.254 341.435 714.866 341.52 714.525 341.689C714.187 341.858 713.92 342.09 713.725 342.385C713.532 342.68 713.438 343.019 713.441 343.404C713.438 343.768 713.526 344.087 713.705 344.358C713.887 344.63 714.147 344.841 714.485 344.99C714.823 345.139 715.224 345.213 715.688 345.213ZM715.688 340.381C716.053 340.381 716.376 340.308 716.658 340.162C716.943 340.016 717.167 339.813 717.329 339.551C717.491 339.289 717.574 338.982 717.578 338.631C717.574 338.286 717.493 337.986 717.334 337.731C717.175 337.473 716.954 337.274 716.673 337.135C716.391 336.992 716.063 336.921 715.688 336.921C715.307 336.921 714.974 336.992 714.689 337.135C714.404 337.274 714.184 337.473 714.028 337.731C713.872 337.986 713.796 338.286 713.799 338.631C713.796 338.982 713.874 339.289 714.033 339.551C714.195 339.813 714.419 340.016 714.704 340.162C714.989 340.308 715.317 340.381 715.688 340.381Z" fill="#222B5A"/>
<path d="M749.389 335.986V346.168H748.156V337.279H748.097L745.611 338.929V337.676L748.156 335.986H749.389ZM755.559 335.847C755.977 335.85 756.394 335.93 756.812 336.086C757.23 336.241 757.611 336.5 757.955 336.861C758.3 337.219 758.577 337.708 758.786 338.328C758.994 338.948 759.099 339.725 759.099 340.659C759.099 341.564 759.013 342.368 758.84 343.071C758.671 343.77 758.426 344.36 758.105 344.841C757.786 345.321 757.399 345.686 756.941 345.934C756.487 346.183 755.973 346.307 755.4 346.307C754.83 346.307 754.321 346.194 753.874 345.969C753.43 345.74 753.065 345.424 752.78 345.02C752.498 344.612 752.318 344.14 752.238 343.603H753.451C753.561 344.07 753.778 344.456 754.102 344.761C754.431 345.063 754.863 345.213 755.4 345.213C756.186 345.213 756.805 344.87 757.259 344.184C757.717 343.498 757.945 342.529 757.945 341.276H757.866C757.68 341.554 757.46 341.795 757.205 341.997C756.95 342.199 756.666 342.355 756.355 342.464C756.043 342.574 755.712 342.628 755.36 342.628C754.777 342.628 754.242 342.484 753.754 342.196C753.271 341.904 752.883 341.505 752.591 340.998C752.303 340.487 752.159 339.904 752.159 339.248C752.159 338.624 752.298 338.054 752.576 337.537C752.858 337.017 753.252 336.603 753.759 336.294C754.27 335.986 754.87 335.837 755.559 335.847ZM755.559 336.941C755.142 336.941 754.765 337.045 754.431 337.254C754.099 337.459 753.836 337.738 753.64 338.089C753.448 338.437 753.352 338.823 753.352 339.248C753.352 339.672 753.445 340.058 753.63 340.406C753.819 340.751 754.076 341.026 754.401 341.231C754.729 341.433 755.102 341.534 755.519 341.534C755.834 341.534 756.128 341.473 756.399 341.35C756.671 341.225 756.908 341.054 757.11 340.838C757.316 340.62 757.477 340.373 757.593 340.098C757.709 339.819 757.767 339.529 757.767 339.228C757.767 338.83 757.67 338.457 757.478 338.109C757.289 337.761 757.027 337.479 756.693 337.264C756.361 337.048 755.983 336.941 755.559 336.941Z" fill="#222B5A"/>
<path d="M785.827 346.168V345.273L789.188 341.594C789.583 341.163 789.907 340.789 790.163 340.471C790.418 340.149 790.607 339.847 790.729 339.566C790.855 339.281 790.918 338.982 790.918 338.671C790.918 338.313 790.832 338.003 790.66 337.741C790.491 337.479 790.259 337.277 789.964 337.135C789.669 336.992 789.337 336.921 788.969 336.921C788.578 336.921 788.237 337.002 787.945 337.164C787.657 337.324 787.433 337.547 787.274 337.836C787.118 338.124 787.04 338.462 787.04 338.85H785.867C785.867 338.253 786.005 337.73 786.28 337.279C786.555 336.828 786.929 336.477 787.403 336.225C787.881 335.973 788.416 335.847 789.009 335.847C789.606 335.847 790.134 335.973 790.595 336.225C791.056 336.477 791.417 336.816 791.679 337.244C791.941 337.672 792.072 338.147 792.072 338.671C792.072 339.045 792.004 339.412 791.868 339.77C791.735 340.124 791.503 340.52 791.172 340.958C790.844 341.392 790.388 341.922 789.805 342.549L787.518 344.995V345.074H792.251V346.168H785.827ZM797.625 346.307C796.876 346.307 796.238 346.103 795.711 345.696C795.184 345.285 794.781 344.69 794.503 343.911C794.224 343.129 794.085 342.184 794.085 341.077C794.085 339.977 794.224 339.037 794.503 338.258C794.785 337.476 795.189 336.879 795.716 336.468C796.246 336.054 796.883 335.847 797.625 335.847C798.367 335.847 799.002 336.054 799.529 336.468C800.059 336.879 800.464 337.476 800.742 338.258C801.024 339.037 801.165 339.977 801.165 341.077C801.165 342.184 801.026 343.129 800.747 343.911C800.469 344.69 800.066 345.285 799.539 345.696C799.012 346.103 798.374 346.307 797.625 346.307ZM797.625 345.213C798.367 345.213 798.944 344.855 799.355 344.14C799.766 343.424 799.972 342.403 799.972 341.077C799.972 340.195 799.877 339.445 799.688 338.825C799.503 338.205 799.234 337.733 798.883 337.408C798.535 337.083 798.116 336.921 797.625 336.921C796.889 336.921 796.314 337.284 795.9 338.01C795.486 338.732 795.278 339.755 795.278 341.077C795.278 341.959 795.371 342.708 795.557 343.324C795.742 343.941 796.009 344.41 796.357 344.731C796.709 345.053 797.131 345.213 797.625 345.213Z" fill="#222B5A"/>
<path d="M827.07 346.168V345.273L830.43 341.594C830.825 341.163 831.15 340.789 831.405 340.471C831.66 340.149 831.849 339.847 831.972 339.566C832.098 339.281 832.161 338.982 832.161 338.671C832.161 338.313 832.074 338.003 831.902 337.741C831.733 337.479 831.501 337.277 831.206 337.135C830.911 336.992 830.58 336.921 830.212 336.921C829.821 336.921 829.479 337.002 829.188 337.164C828.899 337.324 828.675 337.547 828.516 337.836C828.361 338.124 828.283 338.462 828.283 338.85H827.109C827.109 338.253 827.247 337.73 827.522 337.279C827.797 336.828 828.172 336.477 828.646 336.225C829.123 335.973 829.658 335.847 830.251 335.847C830.848 335.847 831.377 335.973 831.837 336.225C832.298 336.477 832.659 336.816 832.921 337.244C833.183 337.672 833.314 338.147 833.314 338.671C833.314 339.045 833.246 339.412 833.11 339.77C832.978 340.124 832.746 340.52 832.414 340.958C832.086 341.392 831.63 341.922 831.047 342.549L828.76 344.995V345.074H833.493V346.168H827.07ZM839.126 335.986V346.168H837.893V337.279H837.833L835.347 338.929V337.676L837.893 335.986H839.126Z" fill="#222B5A"/>
<path d="M866.101 346.168V345.273L869.462 341.594C869.856 341.163 870.181 340.789 870.436 340.471C870.691 340.149 870.88 339.847 871.003 339.566C871.129 339.281 871.192 338.982 871.192 338.671C871.192 338.313 871.106 338.003 870.933 337.741C870.764 337.479 870.532 337.277 870.237 337.135C869.942 336.992 869.611 336.921 869.243 336.921C868.852 336.921 868.51 337.002 868.219 337.164C867.93 337.324 867.707 337.547 867.548 337.836C867.392 338.124 867.314 338.462 867.314 338.85H866.141C866.141 338.253 866.278 337.73 866.553 337.279C866.828 336.828 867.203 336.477 867.677 336.225C868.154 335.973 868.689 335.847 869.283 335.847C869.879 335.847 870.408 335.973 870.869 336.225C871.329 336.477 871.691 336.816 871.952 337.244C872.214 337.672 872.345 338.147 872.345 338.671C872.345 339.045 872.277 339.412 872.141 339.77C872.009 340.124 871.777 340.52 871.445 340.958C871.117 341.392 870.661 341.922 870.078 342.549L867.791 344.995V345.074H872.524V346.168H866.101ZM874.577 346.168V345.273L877.938 341.594C878.333 341.163 878.657 340.789 878.913 340.471C879.168 340.149 879.357 339.847 879.479 339.566C879.605 339.281 879.668 338.982 879.668 338.671C879.668 338.313 879.582 338.003 879.41 337.741C879.241 337.479 879.009 337.277 878.714 337.135C878.419 336.992 878.087 336.921 877.719 336.921C877.328 336.921 876.987 337.002 876.695 337.164C876.407 337.324 876.183 337.547 876.024 337.836C875.868 338.124 875.79 338.462 875.79 338.85H874.617C874.617 338.253 874.755 337.73 875.03 337.279C875.305 336.828 875.679 336.477 876.153 336.225C876.631 335.973 877.166 335.847 877.759 335.847C878.356 335.847 878.884 335.973 879.345 336.225C879.806 336.477 880.167 336.816 880.429 337.244C880.691 337.672 880.822 338.147 880.822 338.671C880.822 339.045 880.754 339.412 880.618 339.77C880.485 340.124 880.253 340.52 879.922 340.958C879.594 341.392 879.138 341.922 878.555 342.549L876.268 344.995V345.074H881.001V346.168H874.577Z" fill="#222B5A"/>
<path d="M907.663 346.168V345.273L911.024 341.594C911.419 341.163 911.743 340.789 911.999 340.471C912.254 340.149 912.443 339.847 912.565 339.566C912.691 339.281 912.754 338.982 912.754 338.671C912.754 338.313 912.668 338.003 912.496 337.741C912.327 337.479 912.095 337.277 911.8 337.135C911.505 336.992 911.173 336.921 910.805 336.921C910.414 336.921 910.073 337.002 909.781 337.164C909.493 337.324 909.269 337.547 909.11 337.836C908.954 338.124 908.876 338.462 908.876 338.85H907.703C907.703 338.253 907.841 337.73 908.116 337.279C908.391 336.828 908.765 336.477 909.239 336.225C909.717 335.973 910.252 335.847 910.845 335.847C911.442 335.847 911.97 335.973 912.431 336.225C912.892 336.477 913.253 336.816 913.515 337.244C913.777 337.672 913.908 338.147 913.908 338.671C913.908 339.045 913.84 339.412 913.704 339.77C913.571 340.124 913.339 340.52 913.008 340.958C912.68 341.392 912.224 341.922 911.641 342.549L909.354 344.995V345.074H914.087V346.168H907.663ZM919.58 346.307C918.924 346.307 918.339 346.194 917.825 345.969C917.315 345.744 916.909 345.431 916.607 345.029C916.309 344.625 916.147 344.156 916.12 343.623H917.373C917.399 343.951 917.512 344.234 917.711 344.473C917.91 344.708 918.17 344.89 918.491 345.02C918.813 345.149 919.169 345.213 919.56 345.213C919.998 345.213 920.386 345.137 920.724 344.985C921.062 344.832 921.327 344.62 921.519 344.348C921.711 344.077 921.808 343.762 921.808 343.404C921.808 343.029 921.715 342.699 921.529 342.414C921.344 342.126 921.072 341.901 920.714 341.738C920.356 341.576 919.918 341.495 919.401 341.495H918.586V340.401H919.401C919.806 340.401 920.16 340.328 920.465 340.182C920.773 340.036 921.014 339.831 921.186 339.566C921.362 339.301 921.45 338.989 921.45 338.631C921.45 338.286 921.373 337.986 921.221 337.731C921.068 337.476 920.853 337.277 920.575 337.135C920.299 336.992 919.975 336.921 919.6 336.921C919.249 336.921 918.917 336.985 918.606 337.115C918.298 337.241 918.046 337.425 917.85 337.667C917.655 337.905 917.549 338.194 917.532 338.532H916.339C916.359 337.998 916.519 337.531 916.821 337.13C917.123 336.725 917.517 336.41 918.004 336.185C918.495 335.96 919.033 335.847 919.62 335.847C920.25 335.847 920.79 335.975 921.241 336.23C921.692 336.482 922.038 336.815 922.28 337.229C922.522 337.643 922.643 338.091 922.643 338.571C922.643 339.145 922.492 339.634 922.19 340.038C921.892 340.442 921.486 340.722 920.972 340.878V340.958C921.615 341.064 922.117 341.337 922.479 341.778C922.84 342.216 923.021 342.757 923.021 343.404C923.021 343.957 922.87 344.454 922.568 344.895C922.27 345.333 921.862 345.677 921.345 345.929C920.828 346.181 920.24 346.307 919.58 346.307Z" fill="#222B5A"/>
<path d="M949.814 346.168V345.273L953.175 341.594C953.569 341.163 953.894 340.789 954.149 340.471C954.404 340.149 954.593 339.847 954.716 339.566C954.842 339.281 954.905 338.982 954.905 338.671C954.905 338.313 954.818 338.003 954.646 337.741C954.477 337.479 954.245 337.277 953.95 337.135C953.655 336.992 953.324 336.921 952.956 336.921C952.565 336.921 952.223 337.002 951.932 337.164C951.643 337.324 951.42 337.547 951.26 337.836C951.105 338.124 951.027 338.462 951.027 338.85H949.854C949.854 338.253 949.991 337.73 950.266 337.279C950.541 336.828 950.916 336.477 951.39 336.225C951.867 335.973 952.402 335.847 952.996 335.847C953.592 335.847 954.121 335.973 954.581 336.225C955.042 336.477 955.403 336.816 955.665 337.244C955.927 337.672 956.058 338.147 956.058 338.671C956.058 339.045 955.99 339.412 955.854 339.77C955.722 340.124 955.49 340.52 955.158 340.958C954.83 341.392 954.374 341.922 953.791 342.549L951.504 344.995V345.074H956.237V346.168H949.814ZM957.833 344.08V343.066L962.307 335.986H963.043V337.557H962.546L959.165 342.907V342.986H965.191V344.08H957.833ZM962.626 346.168V343.772V343.299V335.986H963.799V346.168H962.626Z" fill="#222B5A"/>
<path d="M104 271.5C139.667 209.833 229.4 100.7 303 157.5C395 228.5 425 232.5 478 184C531 135.5 547 112 597 157.5C647 203 713.5 155 787.5 142C861.5 129 926.5 145 968.5 184" stroke="#E6C1FF" stroke-width="4"/>
<defs>
<radialGradient id="paint0_angular_1_128" cx="0" cy="0" r="1" gradientUnits="userSpaceOnUse" gradientTransform="translate(507.5 206.168) rotate(31.9111) scale(340.607 334.879)">
<stop offset="0.112526" stop-color="#FBF1CF"/>
<stop offset="0.301603" stop-color="#D0F6F7"/>
<stop offset="0.457433" stop-color="#DDEDFB"/>
<stop offset="0.57352" stop-color="#E4E7FE"/>
<stop offset="0.704564" stop-color="#FDC6D3"/>
<stop offset="0.964943" stop-color="#E5EAFC"/>
</radialGradient>
</defs>
</svg>
