<svg width="31" height="32" viewBox="0 0 31 32" fill="none" xmlns="http://www.w3.org/2000/svg">
<g clip-path="url(#clip0_45_590)">
<path d="M28.0734 3.987L16.9332 12.23L19.0048 7.37216L28.0734 3.987Z" fill="#E17726"/>
<path d="M3.34071 3.99707L12.3851 7.37311L14.3522 12.2946L3.34071 3.99707ZM23.5903 21.5179L28.5142 21.6116L26.7934 27.4574L20.7852 25.8032L23.5903 21.5179ZM7.79774 21.5179L10.5925 25.8032L4.59441 27.4575L2.88403 21.6116L7.79774 21.5179Z" fill="#E27625"/>
<path d="M14.0847 11.0426L14.2859 17.5416L8.26477 17.2677L9.97748 14.6838L9.99919 14.659L14.0847 11.0426ZM17.2411 10.9701L21.389 14.6592L21.4105 14.6839L23.1232 17.2678L17.1034 17.5416L17.2411 10.9701ZM10.7688 21.5383L14.0565 24.1L10.2374 25.9438L10.7688 21.5383ZM20.62 21.5379L21.1403 25.9439L17.3319 24.0998L20.62 21.5379Z" fill="#E27625"/>
<path d="M17.4159 23.859L21.2806 25.7303L17.6857 27.4388L17.723 26.3096L17.4159 23.859ZM13.9711 23.8598L13.6761 26.2911L13.7004 27.4374L10.097 25.7303L13.9711 23.8598Z" fill="#D5BFB2"/>
<path d="M12.8551 18.3883L13.865 20.5107L10.4267 19.5035L12.8551 18.3883ZM18.5329 18.3885L20.9727 19.5035L17.5232 20.5104L18.5329 18.3885Z" fill="#233447"/>
<path d="M11.0316 21.5168L10.4758 26.0846L7.49695 21.6167L11.0316 21.5168ZM20.3568 21.5169L23.8916 21.6167L20.9015 26.0848L20.3568 21.5169ZM23.2102 17.0096L20.6378 19.6313L18.6544 18.725L17.7049 20.7212L17.0824 17.2884L23.2102 17.0096ZM8.17664 17.0096L14.3057 17.2884L13.6831 20.7212L12.7334 18.7253L10.7605 19.6314L8.17664 17.0096Z" fill="#CC6228"/>
<path d="M8.0033 16.47L10.9137 19.4233L11.0145 22.3389L8.0033 16.47ZM23.3878 16.4647L20.3711 22.3441L20.4847 19.4233L23.3878 16.4647ZM14.1634 16.6499L14.2805 17.3872L14.57 19.2239L14.3839 24.8652L13.5041 20.3334L13.5038 20.2866L14.1634 16.6499ZM17.2232 16.6396L17.8846 20.2866L17.8843 20.3334L17.0022 24.8765L16.9674 23.7402L16.8297 19.1904L17.2232 16.6396Z" fill="#E27525"/>
<path d="M20.7436 19.3066L20.6451 21.8398L17.5748 24.2319L16.9542 23.7934L17.6499 20.2098L20.7436 19.3066ZM10.6556 19.3066L13.7386 20.2098L14.4343 23.7934L13.8136 24.2319L10.7433 21.8396L10.6556 19.3066Z" fill="#F5841F"/>
<path d="M9.5094 25.1696L13.4374 27.0307L13.4208 26.2359L13.7495 25.9474H17.6372L17.9777 26.2349L17.9526 27.0291L21.8558 25.1742L19.9565 26.7437L17.6599 28.3211H13.718L11.4229 26.7372L9.5094 25.1696Z" fill="#C0AC9D"/>
<path d="M17.1347 23.6105L17.6901 24.0029L18.0155 26.5995L17.5445 26.2019H13.8453L13.3832 26.6075L13.698 24.0031L14.2536 23.6105H17.1347Z" fill="#161616"/>
<path d="M27.3379 4.21655L28.6751 8.22827L27.84 12.2846L28.4347 12.7433L27.63 13.3573L28.2348 13.8244L27.4339 14.5537L27.9256 14.9098L26.6208 16.4336L21.269 14.8754L21.2227 14.8505L17.3661 11.5973L27.3379 4.21655ZM4.04992 4.21655L14.0217 11.5973L10.1651 14.8505L10.1188 14.8754L4.76703 16.4336L3.46221 14.9098L3.95347 14.554L3.1531 13.8244L3.75672 13.3578L2.93992 12.7421L3.55704 12.2831L2.71265 8.22847L4.04992 4.21655Z" fill="#763E1A"/>
<path d="M21.0076 14.5342L26.6781 16.1852L28.5203 21.8631H23.66L20.3113 21.9053L22.7467 17.1582L21.0076 14.5342ZM10.3808 14.5342L8.64142 17.1582L11.0771 21.9053L7.7299 21.8631H2.87836L4.71023 16.1853L10.3808 14.5342ZM19.2827 7.34607L17.6967 11.6298L17.3601 17.4166L17.2313 19.2304L17.221 23.8639H14.1673L14.1573 19.2391L14.0281 17.4151L13.6914 11.6298L12.1056 7.34607H19.2827Z" fill="#F5841F"/>
</g>
<defs>
<clipPath id="clip0_45_590">
<rect width="25.9625" height="24.3398" fill="white" transform="translate(2.71252 3.98648)"/>
</clipPath>
</defs>
</svg>
