<svg width="28" height="28" viewBox="0 0 28 28" fill="none" xmlns="http://www.w3.org/2000/svg">
<path d="M15.2755 11.0532L15.188 7.0216C15.188 7.0216 17.2902 5.91035 17.6927 5.17754C18.0952 4.44473 17.929 3.21535 17.4805 3.16941C17.0321 3.12348 15.094 4.54098 14.9299 4.37473C14.7637 4.20848 15.7327 3.02723 15.6868 2.57879C15.6387 2.13035 14.1971 1.03223 14.1971 1.03223L12.5674 2.88504C12.5674 2.88504 13.0399 4.35066 12.9699 4.49285C12.8999 4.63504 10.6774 3.26348 10.2049 3.35754C9.73243 3.4516 9.8943 4.41191 10.0584 4.86254C10.2246 5.31098 13.2521 6.71316 13.2521 6.71316L13.1209 11.1144C13.1209 11.1144 12.5674 11.1057 12.4252 11.1779C12.2831 11.2479 11.944 11.8166 11.944 11.8166C11.944 11.8166 8.76118 10.0929 8.73711 9.73848C8.71305 9.3841 8.78524 6.2166 8.61899 5.88629C8.45274 5.55598 7.74399 5.17098 7.38961 5.17098C7.03524 5.17098 6.79899 8.67316 6.5868 8.67316C6.37461 8.67316 5.56961 6.61691 5.33336 6.61691C5.09711 6.61691 3.26618 6.92316 3.26618 6.92316L3.96399 9.71223L6.13836 10.1607L3.47618 13.1707C3.47618 13.1707 4.12805 13.805 4.74274 13.6629C5.35743 13.5207 7.1293 11.7488 7.31743 11.7488C7.50555 11.7488 10.7212 13.5929 10.7212 13.5929C10.7212 13.5929 10.579 13.9232 10.673 14.1135C10.7671 14.3016 10.9334 14.5379 10.9334 14.5379C10.9334 14.5379 7.74399 16.476 7.52961 16.4279C7.31524 16.3797 5.16711 14.8441 4.55243 14.8441C3.93774 14.8441 3.5593 15.6469 3.5593 15.6469L6.11211 17.7972L3.9618 18.8604L3.04086 20.7744C3.04086 20.7744 5.12118 21.5072 5.40336 21.435C5.68555 21.3629 6.42055 19.615 6.56055 19.5691C6.70274 19.521 6.75524 19.9672 6.75524 19.9672C6.75524 19.9672 7.50555 22.3122 7.78993 22.24C8.0743 22.1679 8.78305 21.7194 8.87711 21.365C8.97118 21.0107 8.73711 18.1997 8.73711 18.1997L12.0927 16.3775C12.0927 16.3775 12.3596 16.8107 12.5412 16.9419C12.6834 17.0447 13.3899 17.1125 13.3899 17.1125L13.2959 20.7744C13.2959 20.7744 9.79586 22.2838 9.67774 22.7082C9.55961 23.1325 9.58586 24.0819 9.91836 24.2C10.2487 24.3182 12.8299 23.1369 12.9481 23.231C13.0662 23.325 12.8977 25.0729 12.8977 25.0729C12.8977 25.0729 14.2846 27.0329 14.5909 26.8447C14.8971 26.6566 15.9712 25.4535 15.9799 25.2304C15.9996 24.8082 14.9474 23.3535 14.9671 23.2682C15.0087 23.0822 17.1502 24.6244 17.5287 24.5763C17.9071 24.5282 18.1893 24.1279 18.1893 23.6772C18.1893 23.2288 15.3062 21.1025 15.3062 21.1025L15.2602 17.0404C15.2602 17.0404 15.818 17.0097 16.0084 16.9157C16.1965 16.8216 16.5727 15.9663 16.5727 15.9663L20.0093 18.2697C20.0093 18.2697 19.8671 22.146 20.2215 22.3822C20.5759 22.6185 21.2146 22.7607 21.4509 22.6425C21.6871 22.5244 21.7112 19.2169 21.7112 19.2169L23.2009 20.5644C23.2009 20.5644 25.3402 20.3741 25.3402 20.0897C25.3402 19.8054 24.9115 18.1997 24.7387 18.0597C24.4302 17.8104 23.0696 17.9329 22.9099 17.8475C22.7831 17.7797 25.3993 16.7363 25.3993 16.3119C25.3993 15.8875 24.544 15.216 24.3077 15.1919C24.0715 15.1679 20.9805 16.5482 20.9805 16.5482L17.3887 14.4219C17.3887 14.4219 17.5768 14.0916 17.5768 13.9254C17.5768 13.7591 17.3427 13.4813 17.3427 13.4813L21.0265 11.4688C21.0265 11.4688 24.264 12.626 24.5702 12.486C24.8765 12.3438 25.1368 12.0835 25.1368 11.8254C25.1368 11.5672 22.4024 10.3094 22.608 10.1957C22.7655 10.1082 24.2859 10.2897 24.5221 10.1957C24.7584 10.1016 25.5109 8.18535 25.4868 8.09129C25.4627 7.99723 22.9143 7.36066 22.9143 7.36066L21.779 8.70816C21.779 8.70816 21.9671 6.15535 21.6849 5.87316C21.4027 5.59098 20.6393 5.73098 20.333 5.94316C20.0268 6.15535 19.843 9.91348 19.843 9.91348L16.378 11.7925C16.378 11.7925 16.0543 11.2719 15.864 11.1757C15.678 11.0729 15.2755 11.0532 15.2755 11.0532Z" fill="#95C7EC"/>
<path d="M16.7216 12.261L20.7816 10.1435L20.7203 5.7751C20.7203 5.7751 20.0903 5.88229 19.7819 6.29354C19.4734 6.70479 19.5763 9.4676 19.5763 9.4676L16.0631 11.3773L16.7216 12.261ZM21.7616 9.60323C21.7616 9.60323 23.0916 7.94948 23.3475 7.86635C23.7763 7.72635 25.4322 8.30823 25.4322 8.30823C25.4322 8.30823 25.6159 7.85104 25.5416 7.67385C25.4672 7.49666 23.4306 6.58666 22.9428 6.75948C22.5622 6.8951 21.7878 8.3651 21.7878 8.3651L21.7616 9.60323ZM21.6478 11.0995C21.5603 11.0842 20.8516 11.5479 20.8516 11.5479C20.8516 11.5479 22.9559 12.8232 23.5728 12.8517C24.3341 12.8889 24.8372 12.3332 24.8372 12.3332C24.8372 12.3332 24.2925 12.3485 23.8966 12.202C23.2513 11.9614 21.6478 11.0995 21.6478 11.0995ZM16.8856 15.3323L16.3869 16.3473C16.3869 16.3473 19.3859 18.2132 19.3991 18.3029C19.4144 18.3904 19.3247 21.6235 19.6353 21.991C19.9438 22.3585 20.5322 22.5488 20.5322 22.5488C20.5322 22.5488 20.7094 17.7867 20.6941 17.7123C20.6766 17.6379 16.8856 15.3323 16.8856 15.3323ZM20.7116 16.3801C20.7116 16.3801 22.8247 14.9495 23.3978 14.9495C23.9709 14.9495 24.4566 15.2426 24.4566 15.2426L21.6609 16.9335L20.7116 16.3801ZM21.8097 18.5304C21.7353 18.736 21.6981 19.506 21.6981 19.506C21.6981 19.506 22.385 21.1226 22.8684 21.2976C23.3541 21.4748 25.2047 20.7835 25.3534 20.6063C25.5 20.4292 25.2834 19.7117 25.2834 19.7117C25.2834 19.7117 23.82 20.2913 23.3825 20.2104C22.8225 20.1076 21.8097 18.5304 21.8097 18.5304ZM12.9131 11.9964C12.7009 12.2085 11.7756 13.567 11.7581 13.8295C11.7406 14.0942 12.7709 15.8551 13.0181 15.9951C13.2653 16.1351 15.2559 15.9951 15.2559 15.9951L16.2775 13.8973C16.2775 13.8973 15.3784 11.9767 15.2384 11.9417C15.0984 11.9067 13.0553 11.8542 12.9131 11.9964ZM13.8209 4.82573C13.9609 4.85198 13.3025 2.86791 13.3025 2.86791L14.7594 1.49198C14.7594 1.49198 14.2169 0.822601 13.9369 0.822601C13.6547 0.822601 12.1213 2.24885 12.1213 2.58573C12.1213 2.9226 12.9678 4.49323 12.9678 4.49323C12.9678 4.49323 13.5541 4.77541 13.8209 4.82573ZM9.89657 4.14104C9.89657 4.14104 9.89876 5.13198 10.2159 5.48416C10.5331 5.83635 12.7906 6.94104 12.7906 6.94104L12.8475 11.1214L13.8297 11.117V6.25198C13.8297 6.25198 11.8741 5.31791 11.4869 5.14291C11.0997 4.96573 10.1788 4.51073 9.89657 4.14104ZM8.66719 10.4279L11.6269 12.296L12.1038 11.5742L8.7372 9.60104L8.66719 10.4279ZM6.55626 8.69323C6.55626 8.69323 7.18188 9.30791 7.31751 9.30354C7.58001 9.29479 7.56251 5.20198 7.56251 5.20198C7.56251 5.20198 7.0572 5.01166 6.79251 5.25885C6.52563 5.50385 6.55626 8.69323 6.55626 8.69323ZM6.23688 9.68854C6.8647 9.84823 6.74657 10.2879 6.65907 10.4279C6.57157 10.5679 3.69938 13.3526 3.69938 13.3526C3.69938 13.3526 3.15251 13.0529 3.15251 12.7357C3.15251 12.4185 5.64407 10.3689 5.51282 10.3382C5.41001 10.3164 3.6272 10.616 3.24001 10.3732C2.99063 10.2179 2.29938 7.61698 2.43063 7.26698C2.53563 6.98479 3.4347 6.90166 3.4347 6.90166C3.4347 6.90166 3.75188 9.22698 3.99907 9.35166C4.24407 9.47635 5.73595 9.56166 6.23688 9.68854ZM10.8722 14.431L7.36345 16.356L8.24501 17.0714L11.3097 15.0982L10.8722 14.431ZM6.87126 17.6707C6.84501 17.9704 5.61126 18.5742 5.50626 18.6638C5.40126 18.7514 4.24626 18.4823 4.17407 18.5873C4.10407 18.6923 3.44126 20.731 3.31657 20.8513C3.29907 20.8688 2.59688 20.6501 2.54438 20.5342C2.41751 20.2563 3.20501 18.0579 3.5572 17.7407C3.90938 17.4235 5.46032 17.8282 5.51282 17.7232C5.56532 17.6182 3.4872 16.4895 3.32751 16.1373C3.17001 15.7851 3.83938 15.2207 3.83938 15.2207C3.83938 15.2207 6.90626 17.2638 6.87126 17.6707ZM7.32626 18.8345C7.21032 18.7535 6.60001 19.5651 6.60001 19.5651C6.60001 19.5651 6.81438 22.1879 7.01345 22.3563C7.2147 22.527 7.79438 22.2382 7.79438 22.2382C7.79438 22.2382 7.50126 18.957 7.32626 18.8345ZM12.9503 17.0473C12.9503 17.0473 12.9831 20.3132 12.9131 20.4357C12.8431 20.5582 10.1853 21.8204 9.81126 22.3038C9.55751 22.632 9.62313 23.496 9.62313 23.496C9.62313 23.496 13.705 21.1948 13.7925 21.1248C13.88 21.0548 13.8122 17.0582 13.8122 17.0582L12.9503 17.0473ZM18.185 23.7498C18.185 23.7498 15.3784 22.0107 15.3456 21.7767C15.3128 21.5535 15.2953 20.5867 15.2953 20.5867C15.2953 20.5867 17.7606 22.3214 18.0078 22.726C18.255 23.1307 18.185 23.7498 18.185 23.7498ZM13.2128 24.8413C13.2566 25.2985 14.8797 26.6023 14.8797 26.6023C14.8797 26.6023 14.3656 27.1579 14.1009 27.1754C13.8363 27.1929 12.1016 25.5282 12.0666 25.2482C12.0316 24.966 12.9481 23.1876 12.9481 23.1876C12.9481 23.1876 13.3594 22.9907 13.67 22.9251C13.8669 22.8813 13.1713 24.3973 13.2128 24.8413Z" fill="#AFE3FF"/>
<path d="M15.5309 13.6706C15.5309 13.6706 15.2706 14.189 15.1415 14.4822C15.0125 14.7753 14.8506 15.2762 14.8506 15.2762C14.8506 15.2762 13.6343 15.3703 13.3106 15.3572C12.8884 15.3419 12.6456 16.1031 13.2625 16.1184C13.8793 16.1337 15.3537 16.1665 15.4828 16.0703C15.6118 15.974 16.5678 14.2219 16.5678 13.8325C16.5678 13.4431 15.7256 12.3581 15.4172 12.0497C15.0584 11.6909 14.4284 12.0497 14.785 12.6337C15.1415 13.2178 15.5309 13.6706 15.5309 13.6706ZM20.4375 6.48249C19.9431 6.46499 19.9803 7.13436 19.9978 7.90874C20.0153 8.68311 20.0678 9.19498 20.4725 9.19498C20.9668 9.19498 20.8772 8.12092 20.8772 7.62655C20.8772 7.13436 20.9493 6.49999 20.4375 6.48249ZM13.9537 1.65467C14.2403 1.94124 13.8487 2.42905 13.689 2.57124C13.5315 2.71124 13.0897 2.99342 12.79 2.71124C12.4903 2.42905 12.8425 2.02436 13.1247 1.81217C13.4068 1.59999 13.7415 1.44249 13.9537 1.65467ZM13.8465 6.0953C13.3893 6.0428 13.4068 7.16936 13.4243 8.5453C13.4462 10.3084 13.4243 11.1353 13.794 11.1178C14.2162 11.0981 14.0937 10.2187 14.0937 8.38561C14.0937 7.37936 14.1987 6.13467 13.8465 6.0953ZM3.27434 7.23936C2.67715 7.4253 2.93965 8.15592 3.09715 8.6853C3.19778 9.02217 3.50403 9.98249 4.06622 9.81405C4.6284 9.64561 4.2959 8.84499 4.17122 8.33311C4.0509 7.82124 3.78622 7.08186 3.27434 7.23936ZM20.1903 19.5922C19.8381 19.5922 19.8031 20.2615 19.8031 20.8609C19.8031 21.4603 19.8031 21.9 20.2078 21.9C20.6125 21.9 20.5425 21.0184 20.5425 20.7012C20.5425 20.384 20.5972 19.5922 20.1903 19.5922ZM13.8115 17.0372C13.5118 17.0503 13.4768 17.724 13.4768 19.0453C13.4768 20.3665 13.4047 21.1475 13.8465 21.1256C14.1987 21.1081 14.1287 19.7869 14.1287 18.8878C14.1287 17.9887 14.2359 17.0197 13.8115 17.0372ZM8.13934 17.0503C8.31653 17.2559 9.22215 16.6806 9.87403 16.3219C10.6572 15.8909 11.5256 15.4775 11.3418 15.1122C11.1581 14.7469 10.2415 15.3944 9.60715 15.7247C8.97278 16.0572 7.83965 16.7025 8.13934 17.0503ZM5.40497 18.7631C5.21465 18.9053 4.68309 18.8156 4.4534 18.9928C4.22372 19.17 4.17559 19.7694 3.90653 19.8744C3.50184 20.0319 3.18465 19.7519 3.39465 19.205C3.60684 18.6581 3.67684 18.2884 3.86934 18.1484C4.06403 18.0084 4.7684 18.0434 5.05059 18.0434C5.54497 18.0412 5.68715 18.5509 5.40497 18.7631Z" fill="#FEFEFE"/>
</svg>
